<?xml version="1.0" standalone="no"?><!DOCTYPE svg PUBLIC "-//W3C//DTD SVG 1.1//EN"
  "http://www.w3.org/Graphics/SVG/1.1/DTD/svg11.dtd">
<svg xmlns:xlink="http://www.w3.org/1999/xlink" t="1533699112606" class="icon" style="" viewBox="0 0 1024 1024"
     version="1.1" xmlns="http://www.w3.org/2000/svg" p-id="1179" width="200" height="200">
  <defs>
    <style type="text/css"></style>
  </defs>
  <path d="M513 529.7m-447.1 0a447.1 447.1 0 1 0 894.2 0 447.1 447.1 0 1 0-894.2 0Z" fill="#75EAE4"
        p-id="1180"></path>
  <path
    d="M513 996.8c-63.1 0-124.2-12.4-181.8-36.7-55.6-23.5-105.6-57.2-148.5-100.1-42.9-42.9-76.6-92.8-100.1-148.5-24.4-57.6-36.7-118.8-36.7-181.8s12.4-124.2 36.7-181.8c23.5-55.6 57.2-105.6 100.1-148.5 42.9-42.9 92.8-76.6 148.5-100.1C388.8 74.9 449.9 62.6 513 62.6S637.2 75 694.8 99.3c55.6 23.5 105.6 57.2 148.5 100.1 42.9 42.9 76.6 92.8 100.1 148.5 24.4 57.6 36.7 118.8 36.7 181.8s-12.4 124.2-36.7 181.8c-23.5 55.6-57.2 105.6-100.1 148.5-42.9 42.9-92.8 76.6-148.5 100.1-57.6 24.4-118.7 36.7-181.8 36.7z m0-894.2c-57.7 0-113.6 11.3-166.3 33.6-50.9 21.5-96.5 52.3-135.8 91.5-39.2 39.2-70 84.9-91.5 135.8C97.2 416.1 85.9 472 85.9 529.7c0 57.7 11.3 113.6 33.6 166.3 21.5 50.9 52.3 96.5 91.5 135.8 39.2 39.2 84.9 70 135.8 91.5 52.6 22.3 108.6 33.6 166.3 33.6 57.7 0 113.6-11.3 166.3-33.6 50.9-21.5 96.5-52.3 135.8-91.5 39.2-39.2 70-84.9 91.5-135.8 22.3-52.6 33.6-108.6 33.6-166.3 0-57.7-11.3-113.6-33.6-166.3-21.5-50.9-52.3-96.5-91.5-135.8s-84.9-70-135.8-91.5c-52.8-22.3-108.7-33.5-166.4-33.5z"
    fill="#05C4CE" p-id="1181"></path>
  <path d="M104.2 503.9a428 421.3 0 1 0 856 0 428 421.3 0 1 0-856 0Z" fill="#FFFFFF" p-id="1182"></path>
  <path
    d="M513 996.8c-63.1 0-124.2-12.4-181.8-36.7-55.6-23.5-105.6-57.2-148.5-100.1-42.9-42.9-76.6-92.8-100.1-148.5-24.4-57.6-36.7-118.8-36.7-181.8s12.4-124.2 36.7-181.8c23.5-55.6 57.2-105.6 100.1-148.5 42.9-42.9 92.8-76.6 148.5-100.1C388.8 74.9 449.9 62.6 513 62.6S637.2 75 694.8 99.3c55.6 23.5 105.6 57.2 148.5 100.1 42.9 42.9 76.6 92.8 100.1 148.5 24.4 57.6 36.7 118.8 36.7 181.8s-12.4 124.2-36.7 181.8c-23.5 55.6-57.2 105.6-100.1 148.5-42.9 42.9-92.8 76.6-148.5 100.1-57.6 24.4-118.7 36.7-181.8 36.7z m0-894.2c-57.7 0-113.6 11.3-166.3 33.6-50.9 21.5-96.5 52.3-135.8 91.5-39.2 39.2-70 84.9-91.5 135.8C97.2 416.1 85.9 472 85.9 529.7c0 57.7 11.3 113.6 33.6 166.3 21.5 50.9 52.3 96.5 91.5 135.8 39.2 39.2 84.9 70 135.8 91.5 52.6 22.3 108.6 33.6 166.3 33.6 57.7 0 113.6-11.3 166.3-33.6 50.9-21.5 96.5-52.3 135.8-91.5 39.2-39.2 70-84.9 91.5-135.8 22.3-52.6 33.6-108.6 33.6-166.3 0-57.7-11.3-113.6-33.6-166.3-21.5-50.9-52.3-96.5-91.5-135.8s-84.9-70-135.8-91.5c-52.8-22.3-108.7-33.5-166.4-33.5z"
    fill="#05C4CE" p-id="1183"></path>
  <path
    d="M406.3 307.1c0 1.5-0.1 2.9-0.1 4.4 0 83 52 150.2 116.2 150.2s116.2-67.2 116.2-150.2c0-1.5-0.1-2.9-0.1-4.4H406.3z"
    fill="#05C4CE" p-id="1184"></path>
  <path
    d="M522.4 353.9c-37.9 0-70.4 24.9-84.6 60.3 21.2 29.1 51.2 47.4 84.6 47.4 33.4 0 63.4-18.3 84.6-47.4-14.2-35.5-46.7-60.3-84.6-60.3z"
    fill="#75EAE4" p-id="1185"></path>
  <path d="M352.8 230.4a44 49.3 0 1 0 88 0 44 49.3 0 1 0-88 0Z" fill="#05C4CE" p-id="1186"></path>
  <path d="M585.2 230.4a44 49.3 0 1 0 88 0 44 49.3 0 1 0-88 0Z" fill="#05C4CE" p-id="1187"></path>
  <path
    d="M347.6 311.2c-15.6 15.6-40.8 15.6-56.3 0-15.6-15.6-15.6-40.8 0-56.3 15.6-15.6 74.6-18.3 74.6-18.3s-2.7 59-18.3 74.6zM678.4 311.2c15.6 15.6 40.8 15.6 56.3 0s15.6-40.8 0-56.3-74.6-18.3-74.6-18.3 2.7 59 18.3 74.6z"
    fill="#75EAE4" p-id="1188"></path>
</svg>
